<?xml version="1.0" ?><!DOCTYPE svg  PUBLIC '-//W3C//DTD SVG 1.1//EN'  'http://www.w3.org/Graphics/SVG/1.1/DTD/svg11.dtd'><svg height="512px" id="Слой_1" style="enable-background:new 0 0 512 512;" version="1.1" viewBox="0 0 512 512" width="512px" xml:space="preserve" xmlns="http://www.w3.org/2000/svg" xmlns:xlink="http://www.w3.org/1999/xlink"><path d="M417.084,73.622c0-32.626-24.14-60.196-56.48-64.473C351.045,7.88,327.375,6,301.313,6  C218.59,6,159.32,61.084,152.397,141.864c-32.367,3.753-57.482,31.223-57.482,64.6v65.764c0,33.139,24.75,60.45,56.788,64.509  v104.234c0,35.922,29.106,65.028,65.028,65.028h67.924c35.923,0,65.029-29.106,65.029-65.028V336.717  c28.909-3.758,52.257-26.56,56.094-56.164l8.505-65.764c1.985-15.359-1.598-30.852-9.929-43.687  c8.009-10.814,12.729-24.189,12.729-38.665V73.622z M352.061,132.437l-34.822,0.015c-27.307,0-32.593,12.979-32.593,32.018v41.988  h65.118l-8.484,65.759h-56.634v168.743h-67.909V272.217H159.95v-65.759h56.788V157.96c0-56.285,34.367-86.931,84.576-86.931  c24.045,0,44.719,1.795,50.748,2.589V132.437z" style="fill:#3C3C3B;"/></svg>